#!OML:ASF G:\JayActor3\Patient Classification 1\Patient 1\Session 6\male.ASF
:FULLY-SPECIFIED
:DEGREES
3764
root -0.440016 15.317 -2.50901 921.059 -80.4976 -909.506
lowerback 33.6306 -0.269045 -0.164242
upperback 15.326 -2.47511 0.975082
thorax -0.328506 -2.1135 1.83571
lowerneck 5.27489 -9.64476 -4.83985
upperneck -29.7777 -10.8073 20.5547
head -8.48663 -7.73572 8.99621
rclavicle -5.06901e-015 5.96354e-016
rhumerus -19.9501 2.3238 -83.4948
rradius 64.6178
rwrist 0.105839
rhand -25.0825 -5.5238
rfingers 7.12502
rthumb 1.43191 -35.4987
lclavicle -5.06901e-015 5.96354e-016
lhumerus -8.25994 -22.4393 76.9725
lradius 92.3919
lwrist 7.08242
lhand -6.0284 12.4925
lfingers 7.12502
lthumb 19.8051 41.5035
rfemur -52.663 -7.64726 20.3186
rtibia 64.3084
rfoot -22.2276 -13.2524
rtoes -5.06785
lfemur -47.2195 15.848 -25.4905
ltibia 54.4531
lfoot -19.3907 7.66381
ltoes -0.465874
3765
root -0.440101 15.3076 -2.51703 921.159 -80.3601 -909.762
lowerback 33.8053 -0.25557 -0.191988
upperback 15.3646 -2.48559 0.977473
thorax -0.347351 -2.12774 1.85967
lowerneck 5.31605 -9.68865 -4.8557
upperneck -29.7148 -10.8552 20.6258
head -8.45818 -7.76295 9.01973
rclavicle 3.77691e-015 -6.50026e-014
rhumerus -19.8753 2.3367 -83.4622
rradius 64.6093
rwrist 0.12225
rhand -25.1556 -5.53896
rfingers 7.12502
rthumb 1.36128 -35.5144
lclavicle 3.77691e-015 -6.50026e-014
lhumerus -8.25235 -22.3407 76.9392
lradius 92.3269
lwrist 7.10226
lhand -6.29601 12.4078
lfingers 7.12502
lthumb 19.5478 41.4451
rfemur -52.6258 -7.50196 20.2803
rtibia 64.4493
rfoot -22.363 -13.3678
rtoes -4.6755
lfemur -47.1021 15.8517 -25.4617
ltibia 54.6032
lfoot -19.4456 7.79966
ltoes -0.582802
3766
root -0.440463 15.3007 -2.52442 921.393 -80.2192 -910.161
lowerback 33.9956 -0.253417 -0.219987
upperback 15.4055 -2.51183 0.971126
thorax -0.368701 -2.14969 1.87971
lowerneck 5.369 -9.72528 -4.86709
upperneck -29.6628 -10.8968 20.6729
head -8.43912 -7.78547 9.03655
rclavicle -2.93207e-014 -3.53837e-014
rhumerus -19.7817 2.37003 -83.4322
rradius 64.5931
rwrist 0.148894
rhand -25.2085 -5.57631
rfingers 7.12502
rthumb 1.3102 -35.552
lclavicle -2.93207e-014 -3.53837e-014
lhumerus -8.24274 -22.2433 76.9186
lradius 92.2441
lwrist 7.10755
lhand -6.5828 12.3425
lfingers 7.12502
lthumb 19.272 41.4076
rfemur -52.5899 -7.35925 20.1918
rtibia 64.6127
rfoot -22.4552 -13.4604
rtoes -4.37519
lfemur -46.943 15.8462 -25.4613
ltibia 54.7055
lfoot -19.4928 7.9437
ltoes -0.692613
3767
root -0.441449 15.2962 -2.53125 921.744 -80.0902 -910.68
lowerback 34.187 -0.269668 -0.240262
upperback 15.4493 -2.5593 0.960422
thorax -0.386474 -2.18157 1.89741
lowerneck 5.43753 -9.75321 -4.86927
upperneck -29.6261 -10.9305 20.691
head -8.43276 -7.80255 9.04499
rclavicle -4.36332e-014 -9.29318e-015
rhumerus -19.6653 2.42877 -83.4033
rradius 64.5601
rwrist 0.177572
rhand -25.2484 -5.60388
rfingers 7.12502
rthumb 1.27169 -35.5798
lclavicle -4.36332e-014 -9.29318e-015
lhumerus -8.23238 -22.1497 76.9153
lradius 92.1363
lwrist 7.0769
lhand -6.88574 12.2821
lfingers 7.12502
lthumb 18.9807 41.376
rfemur -52.5131 -7.23113 20.0608
rtibia 64.7395
rfoot -22.522 -13.5359
rtoes -4.19415
lfemur -46.7514 15.8297 -25.4856
ltibia 54.7616
lfoot -19.5305 8.08355
ltoes -0.793508
3768
root -0.443178 15.2941 -2.53777 922.143 -79.9869 -911.239
lowerback 34.3604 -0.306646 -0.235335
upperback 15.4969 -2.62445 0.950643
thorax -0.393425 -2.22064 1.9075
lowerneck 5.51595 -9.7758 -4.85518
upperneck -29.605 -10.9589 20.6841
head -8.43799 -7.81679 9.04499
rclavicle -5.50634e-014 7.17613e-014
rhumerus -19.5281 2.49901 -83.3745
rradius 64.5086
rwrist 0.206837
rhand -25.2699 -5.64453
rfingers 7.12502
rthumb 1.25091 -35.6206
lclavicle -5.50634e-014 7.17613e-014
lhumerus -8.21632 -22.0782 76.9287
lradius 91.9995
lwrist 7.0021
lhand -7.20083 12.2146
lfingers 7.12502
lthumb 18.6777 41.3379
rfemur -52.3802 -7.12953 19.9167
rtibia 64.7995
rfoot -22.5817 -13.59
rtoes -4.10712
lfemur -46.5446 15.8051 -25.52
ltibia 54.7768
lfoot -19.5545 8.20741
ltoes -0.897602
3769
root -0.445347 15.2939 -2.54402 922.548 -79.9166 -911.783
lowerback 34.5 -0.364626 -0.198915
upperback 15.5474 -2.7044 0.946535
thorax -0.385224 -2.26501 1.91032
lowerneck 5.60111 -9.79289 -4.82122
upperneck -29.6057 -10.98 20.6595
head -8.45636 -7.82882 9.03907
rclavicle -8.84592e-015 3.598e-014
rhumerus -19.3672 2.5758 -83.3447
rradius 64.4324
rwrist 0.233099
rhand -25.2847 -5.66739
rfingers 7.12502
rthumb 1.23656 -35.6436
lclavicle -8.84592e-015 3.598e-014
lhumerus -8.19319 -22.0333 76.9629
lradius 91.8329
lwrist 6.88236
lhand -7.5123 12.1382
lfingers 7.12502
lthumb 18.3781 41.29
rfemur -52.2105 -7.06154 19.7833
rtibia 64.7978
rfoot -22.6536 -13.624
rtoes -4.0469
lfemur -46.3481 15.7742 -25.5562
ltibia 54.7635
lfoot -19.5637 8.30417
ltoes -1.00664
3770
root -0.447742 15.2951 -2.55016 922.92 -79.8813 -912.264
lowerback 34.593 -0.440112 -0.130835
upperback 15.5999 -2.79364 0.954658
thorax -0.358627 -2.31202 1.91057
lowerneck 5.68007 -9.80762 -4.7791
upperneck -29.6202 -10.9974 20.631
head -8.47998 -7.8404 9.03173
rclavicle 4.30369e-014 -1.72446e-014
rhumerus -19.1865 2.65548 -83.3095
rradius 64.3282
rwrist 0.255105
rhand -25.2967 -5.68912
rfingers 7.12502
rthumb 1.22503 -35.6653
lclavicle 4.30369e-014 -1.72446e-014
lhumerus -8.16096 -22.0168 77.0212
lradius 91.6355
lwrist 6.72624
lhand -7.80757 12.0426
lfingers 7.12502
lthumb 18.094 41.221
rfemur -52.0337 -7.02793 19.6801
rtibia 64.753
rfoot -22.7444 -13.6492
rtoes -3.9576
lfemur -46.1838 15.7412 -25.5855
ltibia 54.7358
lfoot -19.5573 8.36829
ltoes -1.12727
3771
root -0.450309 15.297 -2.55659 923.203 -79.8731 -912.616
lowerback 34.6302 -0.523081 -0.0324051
upperback 15.6535 -2.87976 0.977742
thorax -0.311809 -2.35561 1.90771
lowerneck 5.7446 -9.82276 -4.72577
upperneck -29.6488 -11.0135 20.6052
head -8.50668 -7.85376 9.02413
rclavicle -1.2921e-015 3.72721e-016
rhumerus -18.9971 2.72059 -83.2685
rradius 64.206
rwrist 0.27592
rhand -25.3226 -5.69497
rfingers 7.12502
rthumb 1.19998 -35.6713
lclavicle -1.2921e-015 3.72721e-016
lhumerus -8.11693 -22.0327 77.1046
lradius 91.407
lwrist 6.55052
lhand -8.05225 11.9407
lfingers 7.12502
lthumb 17.8586 41.1407
rfemur -51.8825 -7.01652 19.6231
rtibia 64.6871
rfoot -22.8447 -13.6786
rtoes -3.84364
lfemur -46.0691 15.7169 -25.5978
ltibia 54.7077
lfoot -19.5393 8.39524
ltoes -1.24358
3772
root -0.452792 15.2987 -2.56346 923.396 -79.8814 -912.837
lowerback 34.6161 -0.607286 0.0825262
upperback 15.7016 -2.95845 1.01592
thorax -0.253326 -2.39405 1.90814
lowerneck 5.79295 -9.83733 -4.67371
upperneck -29.6824 -11.0272 20.5906
head -8.53135 -7.86746 9.01983
rclavicle 1.44616e-014 -2.88735e-014
rhumerus -18.8135 2.77363 -83.2227
rradius 64.0651
rwrist 0.299621
rhand -25.3414 -5.70366
rfingers 7.12502
rthumb 1.1818 -35.6801
lclavicle 1.44616e-014 -2.88735e-014
lhumerus -8.07405 -22.0719 77.2182
lradius 91.1522
lwrist 6.37942
lhand -8.22694 11.8386
lfingers 7.12502
lthumb 17.6905 41.0538
rfemur -51.7794 -7.02085 19.6113
rtibia 64.6196
rfoot -22.9413 -13.7094
rtoes -3.6939
lfemur -46.013 15.7061 -25.5947
ltibia 54.6876
lfoot -19.5094 8.39136
ltoes -1.36129
3773
root -0.45531 15.3003 -2.57063 923.54 -79.8965 -912.973
lowerback 34.5629 -0.689146 0.199142
upperback 15.7379 -3.02942 1.06854
thorax -0.193741 -2.42774 1.91946
lowerneck 5.82928 -9.85044 -4.63467
upperneck -29.717 -11.039 20.5864
head -8.55239 -7.88018 9.02022
rclavicle -8.99501e-015 -2.96686e-014
rhumerus -18.6544 2.81779 -83.1691
rradius 63.9178
rwrist 0.32988
rhand -25.3602 -5.704
rfingers 7.12502
rthumb 1.16371 -35.6806
lclavicle -8.99501e-015 -2.96686e-014
lhumerus -8.04628 -22.1205 77.3675
lradius 90.876
lwrist 6.23093
lhand -8.32048 11.7434
lfingers 7.12502
lthumb 17.6004 40.9667
rfemur -51.7255 -7.04066 19.6299
rtibia 64.5597
rfoot -23.0263 -13.7282
rtoes -3.52367
lfemur -46.0054 15.71 -25.5864
ltibia 54.6757
lfoot -19.4746 8.36359
ltoes -1.47375
3774
root -0.45795 15.3022 -2.57838 923.673 -79.9043 -913.071
lowerback 34.4855 -0.762139 0.2992
upperback 15.7576 -3.0901 1.13086
thorax -0.143338 -2.45613 1.94622
lowerneck 5.85112 -9.86056 -4.60686
upperneck -29.7457 -11.0481 20.5861
head -8.56769 -7.8904 9.02168
rclavicle 4.37326e-014 1.66606e-014
rhumerus -18.5328 2.85199 -83.1121
rradius 63.7707
rwrist 0.364081
rhand -25.357 -5.70709
rfingers 7.12502
rthumb 1.16681 -35.6836
lclavicle 4.37326e-014 1.66606e-014
lhumerus -8.04743 -22.1722 77.5506
lradius 90.5869
lwrist 6.11969
lhand -8.33323 11.66
lfingers 7.12502
lthumb 17.5882 40.8845
rfemur -51.714 -7.06334 19.6615
rtibia 64.5104
rfoot -23.0955 -13.7295
rtoes -3.33967
lfemur -46.0309 15.7327 -25.5824
ltibia 54.6656
lfoot -19.4368 8.32213
ltoes -1.57864
3775
root -0.460584 15.3047 -2.58637 923.772 -79.9048 -913.114
lowerback 34.4049 -0.831678 0.388931
upperback 15.7536 -3.14495 1.19957
thorax -0.117035 -2.48071 1.98411
lowerneck 5.86482 -9.86425 -4.59469
upperneck -29.7698 -11.0508 20.5875
head -8.57929 -7.89563 9.02471
rclavicle -5.40694e-014 2.71403e-014
rhumerus -18.4603 2.88004 -83.0574
rradius 63.6348
rwrist 0.404381
rhand -25.3374 -5.69568
rfingers 7.12502
rthumb 1.18571 -35.6721
lclavicle -5.40694e-014 2.71403e-014
lhumerus -8.09071 -22.2143 77.7667
lradius 90.2915
lwrist 6.04373
lhand -8.28021 11.5963
lfingers 7.12502
lthumb 17.6392 40.8162
rfemur -51.7318 -7.08408 19.7036
rtibia 64.4676
rfoot -23.1469 -13.7119
rtoes -3.16212
lfemur -46.0773 15.7699 -25.5778
ltibia 54.6509
lfoot -19.3972 8.27254
ltoes -1.66681
3776
root -0.463483 15.3078 -2.59461 923.934 -79.8879 -913.2
lowerback 34.3236 -0.8947 0.454119
upperback 15.7248 -3.19427 1.2666
thorax -0.117008 -2.5019 2.03246
lowerneck 5.86791 -9.86256 -4.58872
upperneck -29.7905 -11.0489 20.5831
head -8.58832 -7.8969 9.02525
rclavicle 5.87595e-014 -1.65706e-014
rhumerus -18.4367 2.89639 -83.0103
rradius 63.5169
rwrist 0.440984
rhand -25.2947 -5.68754
rfingers 7.12502
rthumb 1.22694 -35.6638
lclavicle 5.87595e-014 -1.65706e-014
lhumerus -8.17331 -22.2502 78.0011
lradius 89.9942
lwrist 6.00086
lhand -8.18572 11.5423
lfingers 7.12502
lthumb 17.7301 40.754
rfemur -51.7765 -7.09751 19.7324
rtibia 64.4275
rfoot -23.183 -13.6745
rtoes -3.00004
lfemur -46.1388 15.8188 -25.5944
ltibia 54.6252
lfoot -19.3573 8.22358
ltoes -1.74425
3777
root -0.46677 15.312 -2.60248 924.125 -79.8553 -913.302
lowerback 34.2493 -0.957168 0.511885
upperback 15.6734 -3.24121 1.32621
thorax -0.144273 -2.52025 2.0775
lowerneck 5.85846 -9.85498 -4.58218
upperneck -29.8124 -11.0412 20.5718
head -8.59686 -7.89451 9.02225
rclavicle 4.81121e-014 -5.08143e-015
rhumerus -18.456 2.90345 -82.9775
rradius 63.4155
rwrist 0.454205
rhand -25.2556 -5.65542
rfingers 7.12502
rthumb 1.26467 -35.6314
lclavicle 4.81121e-014 -5.08143e-015
lhumerus -8.2931 -22.28 78.2441
lradius 89.7
lwrist 5.97446
lhand -8.07694 11.5007
lfingers 7.12502
lthumb 17.8348 40.7029
rfemur -51.836 -7.10687 19.7515
rtibia 64.3845
rfoot -23.2021 -13.6211
rtoes -2.86554
lfemur -46.2067 15.8766 -25.626
ltibia 54.5886
lfoot -19.3201 8.17752
ltoes -1.81084
